<mxfile host="app.diagrams.net" agent="Mozilla/5.0 (Macintosh; Intel Mac OS X 10_15_7) AppleWebKit/537.36 (KHTML, like Gecko) Chrome/130.0.0.0 Safari/537.36" version="24.8.3">
  <diagram id="R2lEEEUBdFMjLlhIrx00" name="Page-1">
    <mxGraphModel dx="2358" dy="1926" grid="1" gridSize="10" guides="1" tooltips="1" connect="1" arrows="1" fold="1" page="1" pageScale="1" pageWidth="850" pageHeight="1100" math="0" shadow="0" extFonts="Permanent Marker^https://fonts.googleapis.com/css?family=Permanent+Marker">
      <root>
        <mxCell id="0" />
        <mxCell id="1" parent="0" />
        <mxCell id="jjBXs-sCvuQNykeA3na--121" value="n" style="edgeStyle=orthogonalEdgeStyle;shape=link;rounded=0;orthogonalLoop=1;jettySize=auto;html=1;exitX=1;exitY=0.5;exitDx=0;exitDy=0;entryX=0;entryY=0.5;entryDx=0;entryDy=0;" edge="1" parent="1" source="E9s0W05PRkl6Z1t8F-qR-1" target="jjBXs-sCvuQNykeA3na--115">
          <mxGeometry x="0.1471" relative="1" as="geometry">
            <Array as="points">
              <mxPoint x="130" y="421" />
              <mxPoint x="130" y="421" />
            </Array>
            <mxPoint as="offset" />
          </mxGeometry>
        </mxCell>
        <mxCell id="E9s0W05PRkl6Z1t8F-qR-1" value="Regular Student" style="rounded=0;whiteSpace=wrap;html=1;fontSize=13;" parent="1" vertex="1">
          <mxGeometry x="-19" y="390.5" width="120" height="60" as="geometry" />
        </mxCell>
        <mxCell id="jjBXs-sCvuQNykeA3na--36" style="edgeStyle=none;rounded=0;orthogonalLoop=1;jettySize=auto;html=1;exitX=0.5;exitY=1;exitDx=0;exitDy=0;entryX=0.5;entryY=0;entryDx=0;entryDy=0;fontSize=13;" edge="1" parent="1" source="E9s0W05PRkl6Z1t8F-qR-2" target="jjBXs-sCvuQNykeA3na--35">
          <mxGeometry relative="1" as="geometry" />
        </mxCell>
        <mxCell id="E9s0W05PRkl6Z1t8F-qR-2" value="Person" style="rounded=0;whiteSpace=wrap;html=1;fontSize=13;" parent="1" vertex="1">
          <mxGeometry x="250" y="-340" width="120" height="60" as="geometry" />
        </mxCell>
        <mxCell id="E9s0W05PRkl6Z1t8F-qR-3" value="Name" style="ellipse;whiteSpace=wrap;html=1;fontSize=13;" parent="1" vertex="1">
          <mxGeometry x="130" y="-370" width="70" height="40" as="geometry" />
        </mxCell>
        <mxCell id="E9s0W05PRkl6Z1t8F-qR-4" value="&lt;u&gt;Number&lt;/u&gt;" style="ellipse;whiteSpace=wrap;html=1;fontSize=13;" parent="1" vertex="1">
          <mxGeometry x="286" y="480" width="70" height="40" as="geometry" />
        </mxCell>
        <mxCell id="E9s0W05PRkl6Z1t8F-qR-5" value="&lt;u style=&quot;font-size: 13px;&quot;&gt;Mtk&lt;/u&gt;" style="ellipse;whiteSpace=wrap;html=1;fontSize=13;" parent="1" vertex="1">
          <mxGeometry x="-104" y="400.5" width="70" height="40" as="geometry" />
        </mxCell>
        <mxCell id="E9s0W05PRkl6Z1t8F-qR-6" value="&lt;u style=&quot;font-size: 13px;&quot;&gt;ID&lt;/u&gt;" style="ellipse;whiteSpace=wrap;html=1;fontSize=13;" parent="1" vertex="1">
          <mxGeometry x="130" y="-315" width="70" height="40" as="geometry" />
        </mxCell>
        <mxCell id="E9s0W05PRkl6Z1t8F-qR-7" value="&lt;u style=&quot;font-size: 13px;&quot;&gt;Email&lt;/u&gt;" style="ellipse;whiteSpace=wrap;html=1;fontSize=13;" parent="1" vertex="1">
          <mxGeometry x="413" y="-315" width="70" height="40" as="geometry" />
        </mxCell>
        <mxCell id="E9s0W05PRkl6Z1t8F-qR-8" value="Address" style="ellipse;whiteSpace=wrap;html=1;fontSize=13;" parent="1" vertex="1">
          <mxGeometry x="130" y="-440" width="70" height="40" as="geometry" />
        </mxCell>
        <mxCell id="E9s0W05PRkl6Z1t8F-qR-9" value="Phone" style="ellipse;whiteSpace=wrap;html=1;fontSize=13;" parent="1" vertex="1">
          <mxGeometry x="413" y="-370" width="70" height="40" as="geometry" />
        </mxCell>
        <mxCell id="E9s0W05PRkl6Z1t8F-qR-10" value="Permanent address" style="ellipse;whiteSpace=wrap;html=1;fontSize=13;flipV=1;" parent="1" vertex="1">
          <mxGeometry x="-270" y="-87" width="93" height="44" as="geometry" />
        </mxCell>
        <mxCell id="E9s0W05PRkl6Z1t8F-qR-11" value="Permanent phone" style="ellipse;whiteSpace=wrap;html=1;fontSize=13;flipV=1;" parent="1" vertex="1">
          <mxGeometry x="-270" y="-37" width="93" height="44" as="geometry" />
        </mxCell>
        <mxCell id="E9s0W05PRkl6Z1t8F-qR-12" value="First name" style="ellipse;whiteSpace=wrap;html=1;fontSize=13;" parent="1" vertex="1">
          <mxGeometry x="40" y="-396" width="70" height="40" as="geometry" />
        </mxCell>
        <mxCell id="E9s0W05PRkl6Z1t8F-qR-13" value="Last name" style="ellipse;whiteSpace=wrap;html=1;fontSize=13;" parent="1" vertex="1">
          <mxGeometry x="40" y="-346" width="70" height="40" as="geometry" />
        </mxCell>
        <mxCell id="E9s0W05PRkl6Z1t8F-qR-16" value="Birthdate" style="ellipse;whiteSpace=wrap;html=1;fontSize=13;" parent="1" vertex="1">
          <mxGeometry x="226" y="-440" width="70" height="40" as="geometry" />
        </mxCell>
        <mxCell id="E9s0W05PRkl6Z1t8F-qR-17" value="Age" style="ellipse;whiteSpace=wrap;html=1;dashed=1;fontSize=13;" parent="1" vertex="1">
          <mxGeometry x="317" y="-440" width="70" height="40" as="geometry" />
        </mxCell>
        <mxCell id="E9s0W05PRkl6Z1t8F-qR-18" value="" style="endArrow=none;html=1;rounded=0;entryX=0.5;entryY=1;entryDx=0;entryDy=0;exitX=0.25;exitY=0;exitDx=0;exitDy=0;fontSize=13;" parent="1" source="E9s0W05PRkl6Z1t8F-qR-2" target="E9s0W05PRkl6Z1t8F-qR-16" edge="1">
          <mxGeometry width="50" height="50" relative="1" as="geometry">
            <mxPoint x="120" y="-310" as="sourcePoint" />
            <mxPoint x="160" y="-326" as="targetPoint" />
          </mxGeometry>
        </mxCell>
        <mxCell id="E9s0W05PRkl6Z1t8F-qR-19" value="" style="endArrow=none;html=1;rounded=0;entryX=0.414;entryY=1;entryDx=0;entryDy=0;exitX=0.75;exitY=0;exitDx=0;exitDy=0;entryPerimeter=0;fontSize=13;" parent="1" source="E9s0W05PRkl6Z1t8F-qR-2" target="E9s0W05PRkl6Z1t8F-qR-17" edge="1">
          <mxGeometry width="50" height="50" relative="1" as="geometry">
            <mxPoint x="130" y="-300" as="sourcePoint" />
            <mxPoint x="170" y="-316" as="targetPoint" />
          </mxGeometry>
        </mxCell>
        <mxCell id="E9s0W05PRkl6Z1t8F-qR-20" value="Gender" style="ellipse;whiteSpace=wrap;html=1;fontSize=13;" parent="1" vertex="1">
          <mxGeometry x="413" y="-440" width="70" height="40" as="geometry" />
        </mxCell>
        <mxCell id="E9s0W05PRkl6Z1t8F-qR-21" value="Year" style="ellipse;whiteSpace=wrap;html=1;fontSize=13;" parent="1" vertex="1">
          <mxGeometry x="53" y="-124.5" width="70" height="40" as="geometry" />
        </mxCell>
        <mxCell id="jjBXs-sCvuQNykeA3na--123" value="" style="edgeStyle=orthogonalEdgeStyle;shape=link;rounded=0;orthogonalLoop=1;jettySize=auto;html=1;" edge="1" parent="1" source="E9s0W05PRkl6Z1t8F-qR-22" target="jjBXs-sCvuQNykeA3na--115">
          <mxGeometry relative="1" as="geometry" />
        </mxCell>
        <mxCell id="jjBXs-sCvuQNykeA3na--145" style="edgeStyle=orthogonalEdgeStyle;shape=link;rounded=0;orthogonalLoop=1;jettySize=auto;html=1;exitX=0.5;exitY=1;exitDx=0;exitDy=0;entryX=0;entryY=0.5;entryDx=0;entryDy=0;" edge="1" parent="1" source="E9s0W05PRkl6Z1t8F-qR-22" target="jjBXs-sCvuQNykeA3na--144">
          <mxGeometry relative="1" as="geometry" />
        </mxCell>
        <mxCell id="jjBXs-sCvuQNykeA3na--149" value="n" style="edgeLabel;html=1;align=center;verticalAlign=middle;resizable=0;points=[];" vertex="1" connectable="0" parent="jjBXs-sCvuQNykeA3na--145">
          <mxGeometry x="0.4108" y="-1" relative="1" as="geometry">
            <mxPoint as="offset" />
          </mxGeometry>
        </mxCell>
        <mxCell id="E9s0W05PRkl6Z1t8F-qR-22" value="Kurs (Class)" style="rounded=0;whiteSpace=wrap;html=1;fontSize=13;" parent="1" vertex="1">
          <mxGeometry x="320" y="390.51" width="120" height="60" as="geometry" />
        </mxCell>
        <mxCell id="jjBXs-sCvuQNykeA3na--1" value="Department" style="rounded=0;whiteSpace=wrap;html=1;fontSize=13;" vertex="1" parent="1">
          <mxGeometry x="279" y="-79" width="120" height="60" as="geometry" />
        </mxCell>
        <mxCell id="jjBXs-sCvuQNykeA3na--4" value="" style="endArrow=none;html=1;rounded=0;entryX=0.5;entryY=0;entryDx=0;entryDy=0;exitX=0.25;exitY=1;exitDx=0;exitDy=0;fontSize=13;" edge="1" parent="1" source="E9s0W05PRkl6Z1t8F-qR-22" target="E9s0W05PRkl6Z1t8F-qR-4">
          <mxGeometry width="50" height="50" relative="1" as="geometry">
            <mxPoint x="-187" y="740" as="sourcePoint" />
            <mxPoint x="-137" y="690" as="targetPoint" />
          </mxGeometry>
        </mxCell>
        <mxCell id="jjBXs-sCvuQNykeA3na--5" value="Secretary" style="rounded=0;whiteSpace=wrap;html=1;fontSize=13;" vertex="1" parent="1">
          <mxGeometry x="770" y="389.5" width="120" height="60" as="geometry" />
        </mxCell>
        <mxCell id="jjBXs-sCvuQNykeA3na--11" value="" style="endArrow=none;html=1;rounded=0;exitX=1;exitY=1;exitDx=0;exitDy=0;fontSize=13;" edge="1" parent="1" source="E9s0W05PRkl6Z1t8F-qR-8">
          <mxGeometry width="50" height="50" relative="1" as="geometry">
            <mxPoint x="240" y="-370" as="sourcePoint" />
            <mxPoint x="250" y="-340" as="targetPoint" />
          </mxGeometry>
        </mxCell>
        <mxCell id="jjBXs-sCvuQNykeA3na--13" value="" style="endArrow=none;html=1;rounded=0;exitX=1;exitY=0.5;exitDx=0;exitDy=0;entryX=0;entryY=0.5;entryDx=0;entryDy=0;fontSize=13;" edge="1" parent="1" source="E9s0W05PRkl6Z1t8F-qR-5" target="E9s0W05PRkl6Z1t8F-qR-1">
          <mxGeometry width="50" height="50" relative="1" as="geometry">
            <mxPoint x="-176" y="400" as="sourcePoint" />
            <mxPoint x="-126" y="350" as="targetPoint" />
          </mxGeometry>
        </mxCell>
        <mxCell id="jjBXs-sCvuQNykeA3na--14" value="" style="endArrow=none;html=1;rounded=0;exitX=1;exitY=0.5;exitDx=0;exitDy=0;entryX=0;entryY=0.25;entryDx=0;entryDy=0;fontSize=13;" edge="1" parent="1" source="E9s0W05PRkl6Z1t8F-qR-10" target="jjBXs-sCvuQNykeA3na--43">
          <mxGeometry width="50" height="50" relative="1" as="geometry">
            <mxPoint x="-344" y="-116.5" as="sourcePoint" />
            <mxPoint x="-117" y="-76.5" as="targetPoint" />
          </mxGeometry>
        </mxCell>
        <mxCell id="jjBXs-sCvuQNykeA3na--16" value="Street" style="ellipse;whiteSpace=wrap;html=1;fontSize=13;" vertex="1" parent="1">
          <mxGeometry x="260" y="-570" width="70" height="40" as="geometry" />
        </mxCell>
        <mxCell id="jjBXs-sCvuQNykeA3na--17" value="No." style="ellipse;whiteSpace=wrap;html=1;fontSize=13;" vertex="1" parent="1">
          <mxGeometry x="183" y="-570" width="70" height="40" as="geometry" />
        </mxCell>
        <mxCell id="jjBXs-sCvuQNykeA3na--18" value="City" style="ellipse;whiteSpace=wrap;html=1;fontSize=13;" vertex="1" parent="1">
          <mxGeometry x="105" y="-570" width="70" height="40" as="geometry" />
        </mxCell>
        <mxCell id="jjBXs-sCvuQNykeA3na--19" value="Zip" style="ellipse;whiteSpace=wrap;html=1;fontSize=13;" vertex="1" parent="1">
          <mxGeometry x="28" y="-570" width="70" height="40" as="geometry" />
        </mxCell>
        <mxCell id="jjBXs-sCvuQNykeA3na--20" value="State" style="ellipse;whiteSpace=wrap;html=1;fontSize=13;" vertex="1" parent="1">
          <mxGeometry x="-50" y="-570" width="70" height="40" as="geometry" />
        </mxCell>
        <mxCell id="jjBXs-sCvuQNykeA3na--21" value="" style="endArrow=none;html=1;rounded=0;entryX=0.4;entryY=1.025;entryDx=0;entryDy=0;entryPerimeter=0;fontSize=13;" edge="1" parent="1" source="E9s0W05PRkl6Z1t8F-qR-8" target="jjBXs-sCvuQNykeA3na--16">
          <mxGeometry width="50" height="50" relative="1" as="geometry">
            <mxPoint x="250" y="-30" as="sourcePoint" />
            <mxPoint x="300" y="-80" as="targetPoint" />
          </mxGeometry>
        </mxCell>
        <mxCell id="jjBXs-sCvuQNykeA3na--22" value="" style="endArrow=none;html=1;rounded=0;entryX=0.5;entryY=1;entryDx=0;entryDy=0;exitX=0.614;exitY=0.025;exitDx=0;exitDy=0;exitPerimeter=0;fontSize=13;" edge="1" parent="1" source="E9s0W05PRkl6Z1t8F-qR-8" target="jjBXs-sCvuQNykeA3na--17">
          <mxGeometry width="50" height="50" relative="1" as="geometry">
            <mxPoint x="150" y="-240" as="sourcePoint" />
            <mxPoint x="120" y="-240" as="targetPoint" />
          </mxGeometry>
        </mxCell>
        <mxCell id="jjBXs-sCvuQNykeA3na--23" value="" style="endArrow=none;html=1;rounded=0;exitX=0.6;exitY=0.95;exitDx=0;exitDy=0;entryX=0.5;entryY=0;entryDx=0;entryDy=0;exitPerimeter=0;fontSize=13;" edge="1" parent="1" source="jjBXs-sCvuQNykeA3na--18" target="E9s0W05PRkl6Z1t8F-qR-8">
          <mxGeometry width="50" height="50" relative="1" as="geometry">
            <mxPoint x="250" y="-30" as="sourcePoint" />
            <mxPoint x="300" y="-80" as="targetPoint" />
          </mxGeometry>
        </mxCell>
        <mxCell id="jjBXs-sCvuQNykeA3na--24" value="" style="endArrow=none;html=1;rounded=0;entryX=0.286;entryY=0.075;entryDx=0;entryDy=0;entryPerimeter=0;fontSize=13;" edge="1" parent="1" source="jjBXs-sCvuQNykeA3na--19" target="E9s0W05PRkl6Z1t8F-qR-8">
          <mxGeometry width="50" height="50" relative="1" as="geometry">
            <mxPoint x="250" y="-30" as="sourcePoint" />
            <mxPoint x="300" y="-80" as="targetPoint" />
          </mxGeometry>
        </mxCell>
        <mxCell id="jjBXs-sCvuQNykeA3na--25" value="" style="endArrow=none;html=1;rounded=0;entryX=0;entryY=0;entryDx=0;entryDy=0;fontSize=13;" edge="1" parent="1" source="jjBXs-sCvuQNykeA3na--20" target="E9s0W05PRkl6Z1t8F-qR-8">
          <mxGeometry width="50" height="50" relative="1" as="geometry">
            <mxPoint x="250" y="-30" as="sourcePoint" />
            <mxPoint x="300" y="-80" as="targetPoint" />
          </mxGeometry>
        </mxCell>
        <mxCell id="jjBXs-sCvuQNykeA3na--27" value="" style="endArrow=none;html=1;rounded=0;entryX=0;entryY=1;entryDx=0;entryDy=0;exitX=1;exitY=0;exitDx=0;exitDy=0;fontSize=13;" edge="1" parent="1" source="E9s0W05PRkl6Z1t8F-qR-2" target="E9s0W05PRkl6Z1t8F-qR-20">
          <mxGeometry width="50" height="50" relative="1" as="geometry">
            <mxPoint x="250" y="-230" as="sourcePoint" />
            <mxPoint x="300" y="-280" as="targetPoint" />
          </mxGeometry>
        </mxCell>
        <mxCell id="jjBXs-sCvuQNykeA3na--30" value="Visiting student" style="rounded=0;whiteSpace=wrap;html=1;fontSize=13;" vertex="1" parent="1">
          <mxGeometry x="-260" y="390.5" width="120" height="60" as="geometry" />
        </mxCell>
        <mxCell id="jjBXs-sCvuQNykeA3na--31" value="Nationality" style="ellipse;whiteSpace=wrap;html=1;fontSize=13;flipV=1;" vertex="1" parent="1">
          <mxGeometry x="-390" y="340.5" width="80" height="40" as="geometry" />
        </mxCell>
        <mxCell id="jjBXs-sCvuQNykeA3na--32" value="Start of visit" style="ellipse;whiteSpace=wrap;html=1;fontSize=13;flipV=1;" vertex="1" parent="1">
          <mxGeometry x="-400" y="400.5" width="100" height="40" as="geometry" />
        </mxCell>
        <mxCell id="jjBXs-sCvuQNykeA3na--33" value="End of visit" style="ellipse;whiteSpace=wrap;html=1;fontSize=13;flipV=1;" vertex="1" parent="1">
          <mxGeometry x="-400" y="460.5" width="100" height="40" as="geometry" />
        </mxCell>
        <mxCell id="jjBXs-sCvuQNykeA3na--34" style="edgeStyle=none;rounded=0;orthogonalLoop=1;jettySize=auto;html=1;exitX=1;exitY=0;exitDx=0;exitDy=0;fontSize=13;" edge="1" parent="1">
          <mxGeometry relative="1" as="geometry">
            <mxPoint x="472.74873734152925" y="-394.14213562373084" as="sourcePoint" />
            <mxPoint x="472.4922942186122" y="-394.2871716275238" as="targetPoint" />
          </mxGeometry>
        </mxCell>
        <mxCell id="jjBXs-sCvuQNykeA3na--52" style="edgeStyle=orthogonalEdgeStyle;rounded=0;orthogonalLoop=1;jettySize=auto;html=1;exitX=0;exitY=0.5;exitDx=0;exitDy=0;entryX=0.5;entryY=0;entryDx=0;entryDy=0;fontSize=13;" edge="1" parent="1" source="jjBXs-sCvuQNykeA3na--35" target="jjBXs-sCvuQNykeA3na--43">
          <mxGeometry relative="1" as="geometry" />
        </mxCell>
        <mxCell id="jjBXs-sCvuQNykeA3na--53" style="edgeStyle=orthogonalEdgeStyle;rounded=0;orthogonalLoop=1;jettySize=auto;html=1;exitX=1;exitY=0.5;exitDx=0;exitDy=0;entryX=0.5;entryY=0;entryDx=0;entryDy=0;fontSize=13;" edge="1" parent="1" source="jjBXs-sCvuQNykeA3na--35" target="jjBXs-sCvuQNykeA3na--44">
          <mxGeometry relative="1" as="geometry" />
        </mxCell>
        <mxCell id="jjBXs-sCvuQNykeA3na--35" value="d" style="ellipse;whiteSpace=wrap;html=1;aspect=fixed;fontSize=13;" vertex="1" parent="1">
          <mxGeometry x="295" y="-230" width="30" height="30" as="geometry" />
        </mxCell>
        <mxCell id="jjBXs-sCvuQNykeA3na--38" value="" style="endArrow=none;html=1;rounded=0;entryX=1;entryY=0.5;entryDx=0;entryDy=0;exitX=0;exitY=0.25;exitDx=0;exitDy=0;fontSize=13;" edge="1" parent="1" source="jjBXs-sCvuQNykeA3na--30" target="jjBXs-sCvuQNykeA3na--31">
          <mxGeometry width="50" height="50" relative="1" as="geometry">
            <mxPoint x="-250" y="410" as="sourcePoint" />
            <mxPoint x="120" y="520" as="targetPoint" />
          </mxGeometry>
        </mxCell>
        <mxCell id="jjBXs-sCvuQNykeA3na--40" value="" style="endArrow=none;html=1;rounded=0;fontSize=13;" edge="1" parent="1" source="jjBXs-sCvuQNykeA3na--33" target="jjBXs-sCvuQNykeA3na--30">
          <mxGeometry width="50" height="50" relative="1" as="geometry">
            <mxPoint x="70" y="570" as="sourcePoint" />
            <mxPoint x="120" y="520" as="targetPoint" />
          </mxGeometry>
        </mxCell>
        <mxCell id="jjBXs-sCvuQNykeA3na--41" value="Lecturer" style="rounded=0;whiteSpace=wrap;html=1;fontSize=13;" vertex="1" parent="1">
          <mxGeometry x="962.99" y="389.01" width="120" height="60" as="geometry" />
        </mxCell>
        <mxCell id="jjBXs-sCvuQNykeA3na--43" value="Student" style="rounded=0;whiteSpace=wrap;html=1;fontSize=13;" vertex="1" parent="1">
          <mxGeometry x="-142" y="-79" width="120" height="60" as="geometry" />
        </mxCell>
        <mxCell id="jjBXs-sCvuQNykeA3na--44" value="Employee" style="rounded=0;whiteSpace=wrap;html=1;fontSize=13;" vertex="1" parent="1">
          <mxGeometry x="868" y="-79" width="120" height="60" as="geometry" />
        </mxCell>
        <mxCell id="jjBXs-sCvuQNykeA3na--49" value="" style="endArrow=none;html=1;rounded=0;entryX=0;entryY=0;entryDx=0;entryDy=0;exitX=1;exitY=0.5;exitDx=0;exitDy=0;fontSize=13;" edge="1" parent="1" source="E9s0W05PRkl6Z1t8F-qR-12" target="E9s0W05PRkl6Z1t8F-qR-3">
          <mxGeometry width="50" height="50" relative="1" as="geometry">
            <mxPoint x="230" y="-130" as="sourcePoint" />
            <mxPoint x="280" y="-180" as="targetPoint" />
          </mxGeometry>
        </mxCell>
        <mxCell id="jjBXs-sCvuQNykeA3na--50" value="" style="endArrow=none;html=1;rounded=0;entryX=0;entryY=1;entryDx=0;entryDy=0;exitX=1;exitY=0.5;exitDx=0;exitDy=0;fontSize=13;" edge="1" parent="1" source="E9s0W05PRkl6Z1t8F-qR-13" target="E9s0W05PRkl6Z1t8F-qR-3">
          <mxGeometry width="50" height="50" relative="1" as="geometry">
            <mxPoint x="230" y="-130" as="sourcePoint" />
            <mxPoint x="280" y="-180" as="targetPoint" />
          </mxGeometry>
        </mxCell>
        <mxCell id="jjBXs-sCvuQNykeA3na--51" value="" style="endArrow=none;html=1;rounded=0;entryX=0;entryY=0.75;entryDx=0;entryDy=0;exitX=1;exitY=0.5;exitDx=0;exitDy=0;fontSize=13;" edge="1" parent="1" source="E9s0W05PRkl6Z1t8F-qR-6" target="E9s0W05PRkl6Z1t8F-qR-2">
          <mxGeometry width="50" height="50" relative="1" as="geometry">
            <mxPoint x="230" y="-130" as="sourcePoint" />
            <mxPoint x="280" y="-180" as="targetPoint" />
          </mxGeometry>
        </mxCell>
        <mxCell id="jjBXs-sCvuQNykeA3na--56" value="" style="group;fontSize=13;" vertex="1" connectable="0" parent="1">
          <mxGeometry x="1194" y="-79" width="120" height="60" as="geometry" />
        </mxCell>
        <mxCell id="jjBXs-sCvuQNykeA3na--55" value="" style="rounded=0;whiteSpace=wrap;html=1;fontSize=13;" vertex="1" parent="jjBXs-sCvuQNykeA3na--56">
          <mxGeometry width="120" height="60" as="geometry" />
        </mxCell>
        <mxCell id="jjBXs-sCvuQNykeA3na--54" value="Emergency contact" style="rounded=0;whiteSpace=wrap;html=1;shadow=0;perimeterSpacing=15;strokeWidth=1;fontSize=13;" vertex="1" parent="jjBXs-sCvuQNykeA3na--56">
          <mxGeometry x="10" y="5.5" width="100" height="49" as="geometry" />
        </mxCell>
        <mxCell id="jjBXs-sCvuQNykeA3na--60" value="" style="group;fontSize=13;" vertex="1" connectable="0" parent="1">
          <mxGeometry x="1028" y="-84.5" width="110" height="71" as="geometry" />
        </mxCell>
        <mxCell id="jjBXs-sCvuQNykeA3na--57" value="" style="rhombus;whiteSpace=wrap;html=1;fontSize=13;" vertex="1" parent="jjBXs-sCvuQNykeA3na--60">
          <mxGeometry width="110" height="71" as="geometry" />
        </mxCell>
        <mxCell id="jjBXs-sCvuQNykeA3na--58" value="contact" style="rhombus;whiteSpace=wrap;html=1;fontSize=13;" vertex="1" parent="jjBXs-sCvuQNykeA3na--60">
          <mxGeometry x="8.75" y="7.25" width="92.5" height="56.5" as="geometry" />
        </mxCell>
        <mxCell id="jjBXs-sCvuQNykeA3na--61" value="1" style="endArrow=none;html=1;rounded=0;entryX=1;entryY=0.5;entryDx=0;entryDy=0;exitX=0;exitY=0.5;exitDx=0;exitDy=0;fontSize=13;" edge="1" parent="1" source="jjBXs-sCvuQNykeA3na--57" target="jjBXs-sCvuQNykeA3na--44">
          <mxGeometry width="50" height="50" relative="1" as="geometry">
            <mxPoint x="698" y="202" as="sourcePoint" />
            <mxPoint x="748" y="152" as="targetPoint" />
            <Array as="points" />
          </mxGeometry>
        </mxCell>
        <mxCell id="jjBXs-sCvuQNykeA3na--63" value="(1,2)" style="endArrow=none;html=1;rounded=0;entryX=0;entryY=0.5;entryDx=0;entryDy=0;fontSize=13;exitX=1;exitY=0.5;exitDx=0;exitDy=0;" edge="1" parent="1" source="jjBXs-sCvuQNykeA3na--57" target="jjBXs-sCvuQNykeA3na--55">
          <mxGeometry width="50" height="50" relative="1" as="geometry">
            <mxPoint x="1158" y="-48" as="sourcePoint" />
            <mxPoint x="764" y="152" as="targetPoint" />
            <Array as="points" />
            <mxPoint as="offset" />
          </mxGeometry>
        </mxCell>
        <mxCell id="jjBXs-sCvuQNykeA3na--64" value="" style="endArrow=none;html=1;rounded=0;entryX=0;entryY=0.5;entryDx=0;entryDy=0;exitX=1;exitY=0.75;exitDx=0;exitDy=0;fontSize=13;" edge="1" parent="1" source="E9s0W05PRkl6Z1t8F-qR-2" target="E9s0W05PRkl6Z1t8F-qR-7">
          <mxGeometry width="50" height="50" relative="1" as="geometry">
            <mxPoint x="340" y="-60" as="sourcePoint" />
            <mxPoint x="390" y="-110" as="targetPoint" />
          </mxGeometry>
        </mxCell>
        <mxCell id="jjBXs-sCvuQNykeA3na--66" value="" style="endArrow=none;html=1;rounded=0;entryX=0;entryY=0.5;entryDx=0;entryDy=0;exitX=1;exitY=0.5;exitDx=0;exitDy=0;fontSize=13;" edge="1" parent="1" source="E9s0W05PRkl6Z1t8F-qR-2" target="E9s0W05PRkl6Z1t8F-qR-9">
          <mxGeometry width="50" height="50" relative="1" as="geometry">
            <mxPoint x="340" y="-60" as="sourcePoint" />
            <mxPoint x="390" y="-110" as="targetPoint" />
          </mxGeometry>
        </mxCell>
        <mxCell id="jjBXs-sCvuQNykeA3na--67" value="" style="endArrow=none;html=1;rounded=0;entryX=1;entryY=0.5;entryDx=0;entryDy=0;exitX=0;exitY=0.5;exitDx=0;exitDy=0;fontSize=13;" edge="1" parent="1" source="E9s0W05PRkl6Z1t8F-qR-2" target="E9s0W05PRkl6Z1t8F-qR-3">
          <mxGeometry width="50" height="50" relative="1" as="geometry">
            <mxPoint x="340" y="-60" as="sourcePoint" />
            <mxPoint x="390" y="-110" as="targetPoint" />
          </mxGeometry>
        </mxCell>
        <mxCell id="jjBXs-sCvuQNykeA3na--68" value="Name" style="ellipse;whiteSpace=wrap;html=1;fontSize=13;" vertex="1" parent="1">
          <mxGeometry x="1131" y="-158" width="70" height="40" as="geometry" />
        </mxCell>
        <mxCell id="jjBXs-sCvuQNykeA3na--69" value="Phone" style="ellipse;whiteSpace=wrap;html=1;fontSize=13;" vertex="1" parent="1">
          <mxGeometry x="1218" y="-158" width="70" height="40" as="geometry" />
        </mxCell>
        <mxCell id="jjBXs-sCvuQNykeA3na--70" value="Relation-ship" style="ellipse;whiteSpace=wrap;html=1;fontSize=13;" vertex="1" parent="1">
          <mxGeometry x="1301" y="-158" width="70" height="40" as="geometry" />
        </mxCell>
        <mxCell id="jjBXs-sCvuQNykeA3na--71" value="" style="endArrow=none;html=1;rounded=0;entryX=0.5;entryY=1;entryDx=0;entryDy=0;exitX=0.25;exitY=0;exitDx=0;exitDy=0;fontSize=13;" edge="1" parent="1" source="jjBXs-sCvuQNykeA3na--55" target="jjBXs-sCvuQNykeA3na--68">
          <mxGeometry width="50" height="50" relative="1" as="geometry">
            <mxPoint x="854" y="52" as="sourcePoint" />
            <mxPoint x="904" y="2" as="targetPoint" />
          </mxGeometry>
        </mxCell>
        <mxCell id="jjBXs-sCvuQNykeA3na--72" value="" style="endArrow=none;html=1;rounded=0;entryX=0.5;entryY=1;entryDx=0;entryDy=0;exitX=0.5;exitY=0;exitDx=0;exitDy=0;fontSize=13;" edge="1" parent="1" source="jjBXs-sCvuQNykeA3na--55" target="jjBXs-sCvuQNykeA3na--69">
          <mxGeometry width="50" height="50" relative="1" as="geometry">
            <mxPoint x="854" y="52" as="sourcePoint" />
            <mxPoint x="904" y="2" as="targetPoint" />
          </mxGeometry>
        </mxCell>
        <mxCell id="jjBXs-sCvuQNykeA3na--73" value="" style="endArrow=none;html=1;rounded=0;entryX=0.5;entryY=1;entryDx=0;entryDy=0;exitX=0.75;exitY=0;exitDx=0;exitDy=0;fontSize=13;" edge="1" parent="1" source="jjBXs-sCvuQNykeA3na--55" target="jjBXs-sCvuQNykeA3na--70">
          <mxGeometry width="50" height="50" relative="1" as="geometry">
            <mxPoint x="854" y="52" as="sourcePoint" />
            <mxPoint x="904" y="2" as="targetPoint" />
          </mxGeometry>
        </mxCell>
        <mxCell id="jjBXs-sCvuQNykeA3na--74" style="edgeStyle=none;rounded=0;orthogonalLoop=1;jettySize=auto;html=1;exitX=0.5;exitY=1;exitDx=0;exitDy=0;entryX=0.5;entryY=0;entryDx=0;entryDy=0;fontSize=13;" edge="1" parent="1" target="jjBXs-sCvuQNykeA3na--77">
          <mxGeometry relative="1" as="geometry">
            <mxPoint x="-77.5" y="-19" as="sourcePoint" />
          </mxGeometry>
        </mxCell>
        <mxCell id="jjBXs-sCvuQNykeA3na--75" style="edgeStyle=orthogonalEdgeStyle;rounded=0;orthogonalLoop=1;jettySize=auto;html=1;exitX=0;exitY=0.5;exitDx=0;exitDy=0;entryX=0.5;entryY=0;entryDx=0;entryDy=0;fontSize=13;" edge="1" parent="1" source="jjBXs-sCvuQNykeA3na--77" target="jjBXs-sCvuQNykeA3na--30">
          <mxGeometry relative="1" as="geometry">
            <mxPoint x="-337.5" y="388" as="targetPoint" />
          </mxGeometry>
        </mxCell>
        <mxCell id="jjBXs-sCvuQNykeA3na--78" style="edgeStyle=orthogonalEdgeStyle;rounded=0;orthogonalLoop=1;jettySize=auto;html=1;exitX=1;exitY=0.5;exitDx=0;exitDy=0;entryX=0.5;entryY=0;entryDx=0;entryDy=0;fontSize=13;" edge="1" parent="1" source="jjBXs-sCvuQNykeA3na--77" target="E9s0W05PRkl6Z1t8F-qR-1">
          <mxGeometry relative="1" as="geometry" />
        </mxCell>
        <mxCell id="jjBXs-sCvuQNykeA3na--77" value="d" style="ellipse;whiteSpace=wrap;html=1;aspect=fixed;fontSize=13;" vertex="1" parent="1">
          <mxGeometry x="-92.5" y="31" width="30" height="30" as="geometry" />
        </mxCell>
        <mxCell id="jjBXs-sCvuQNykeA3na--79" value="Degree program" style="ellipse;whiteSpace=wrap;html=1;fontSize=13;flipV=1;" vertex="1" parent="1">
          <mxGeometry x="-270" y="-137" width="93" height="40" as="geometry" />
        </mxCell>
        <mxCell id="jjBXs-sCvuQNykeA3na--80" value="" style="endArrow=none;html=1;rounded=0;entryX=1;entryY=0.5;entryDx=0;entryDy=0;exitX=0;exitY=0;exitDx=0;exitDy=0;fontSize=13;" edge="1" parent="1" source="jjBXs-sCvuQNykeA3na--43" target="jjBXs-sCvuQNykeA3na--79">
          <mxGeometry width="50" height="50" relative="1" as="geometry">
            <mxPoint x="208" y="-18" as="sourcePoint" />
            <mxPoint x="258" y="-68" as="targetPoint" />
          </mxGeometry>
        </mxCell>
        <mxCell id="jjBXs-sCvuQNykeA3na--81" value="register" style="rhombus;whiteSpace=wrap;html=1;fontSize=13;" vertex="1" parent="1">
          <mxGeometry x="88" y="-76" width="80" height="54" as="geometry" />
        </mxCell>
        <mxCell id="jjBXs-sCvuQNykeA3na--82" value="" style="endArrow=none;html=1;rounded=0;exitX=1;exitY=0.5;exitDx=0;exitDy=0;entryX=0;entryY=0.5;entryDx=0;entryDy=0;fontSize=13;shape=link;" edge="1" parent="1" source="jjBXs-sCvuQNykeA3na--43" target="jjBXs-sCvuQNykeA3na--81">
          <mxGeometry width="50" height="50" relative="1" as="geometry">
            <mxPoint x="380" y="-18" as="sourcePoint" />
            <mxPoint x="430" y="-68" as="targetPoint" />
          </mxGeometry>
        </mxCell>
        <mxCell id="jjBXs-sCvuQNykeA3na--84" value="n" style="edgeLabel;html=1;align=center;verticalAlign=middle;resizable=0;points=[];fontSize=13;" vertex="1" connectable="0" parent="jjBXs-sCvuQNykeA3na--82">
          <mxGeometry x="0.4" y="-1" relative="1" as="geometry">
            <mxPoint x="-9" as="offset" />
          </mxGeometry>
        </mxCell>
        <mxCell id="jjBXs-sCvuQNykeA3na--86" value="" style="endArrow=none;html=1;rounded=0;exitX=0.978;exitY=0.364;exitDx=0;exitDy=0;exitPerimeter=0;entryX=0;entryY=0.75;entryDx=0;entryDy=0;" edge="1" parent="1" source="E9s0W05PRkl6Z1t8F-qR-11" target="jjBXs-sCvuQNykeA3na--43">
          <mxGeometry width="50" height="50" relative="1" as="geometry">
            <mxPoint x="170" y="-178" as="sourcePoint" />
            <mxPoint x="220" y="-228" as="targetPoint" />
          </mxGeometry>
        </mxCell>
        <mxCell id="jjBXs-sCvuQNykeA3na--87" value="" style="endArrow=none;html=1;rounded=0;exitX=0.5;exitY=1;exitDx=0;exitDy=0;entryX=0;entryY=0;entryDx=0;entryDy=0;" edge="1" parent="1" source="E9s0W05PRkl6Z1t8F-qR-21" target="jjBXs-sCvuQNykeA3na--81">
          <mxGeometry relative="1" as="geometry">
            <mxPoint x="130" y="102" as="sourcePoint" />
            <mxPoint x="290" y="102" as="targetPoint" />
          </mxGeometry>
        </mxCell>
        <mxCell id="jjBXs-sCvuQNykeA3na--88" value="work" style="rhombus;whiteSpace=wrap;html=1;fontSize=13;" vertex="1" parent="1">
          <mxGeometry x="502" y="-76" width="80" height="54" as="geometry" />
        </mxCell>
        <mxCell id="jjBXs-sCvuQNykeA3na--90" value="" style="endArrow=none;html=1;rounded=0;exitX=1;exitY=0.5;exitDx=0;exitDy=0;entryX=0;entryY=0.5;entryDx=0;entryDy=0;fontSize=13;shape=link;" edge="1" parent="1" source="jjBXs-sCvuQNykeA3na--88" target="jjBXs-sCvuQNykeA3na--44">
          <mxGeometry width="50" height="50" relative="1" as="geometry">
            <mxPoint x="-12" y="-39" as="sourcePoint" />
            <mxPoint x="58" y="-39" as="targetPoint" />
          </mxGeometry>
        </mxCell>
        <mxCell id="jjBXs-sCvuQNykeA3na--91" value="n" style="edgeLabel;html=1;align=center;verticalAlign=middle;resizable=0;points=[];fontSize=13;" vertex="1" connectable="0" parent="jjBXs-sCvuQNykeA3na--90">
          <mxGeometry x="0.4" y="-1" relative="1" as="geometry">
            <mxPoint x="-9" as="offset" />
          </mxGeometry>
        </mxCell>
        <mxCell id="jjBXs-sCvuQNykeA3na--92" value="" style="endArrow=none;html=1;rounded=0;exitX=1;exitY=0.5;exitDx=0;exitDy=0;" edge="1" parent="1" source="jjBXs-sCvuQNykeA3na--81" target="jjBXs-sCvuQNykeA3na--1">
          <mxGeometry width="50" height="50" relative="1" as="geometry">
            <mxPoint x="300" y="42" as="sourcePoint" />
            <mxPoint x="350" y="-8" as="targetPoint" />
          </mxGeometry>
        </mxCell>
        <mxCell id="jjBXs-sCvuQNykeA3na--93" value="1" style="edgeLabel;html=1;align=center;verticalAlign=middle;resizable=0;points=[];fontSize=13;" vertex="1" connectable="0" parent="jjBXs-sCvuQNykeA3na--92">
          <mxGeometry x="0.3056" y="1" relative="1" as="geometry">
            <mxPoint x="-12" as="offset" />
          </mxGeometry>
        </mxCell>
        <mxCell id="jjBXs-sCvuQNykeA3na--94" value="" style="endArrow=none;html=1;rounded=0;exitX=1;exitY=0.5;exitDx=0;exitDy=0;" edge="1" parent="1" source="jjBXs-sCvuQNykeA3na--1" target="jjBXs-sCvuQNykeA3na--88">
          <mxGeometry width="50" height="50" relative="1" as="geometry">
            <mxPoint x="138" y="-39" as="sourcePoint" />
            <mxPoint x="210" y="-39" as="targetPoint" />
          </mxGeometry>
        </mxCell>
        <mxCell id="jjBXs-sCvuQNykeA3na--95" value="1" style="edgeLabel;html=1;align=center;verticalAlign=middle;resizable=0;points=[];fontSize=13;" vertex="1" connectable="0" parent="jjBXs-sCvuQNykeA3na--94">
          <mxGeometry x="0.3056" y="1" relative="1" as="geometry">
            <mxPoint x="-12" as="offset" />
          </mxGeometry>
        </mxCell>
        <mxCell id="jjBXs-sCvuQNykeA3na--99" value="" style="endArrow=none;html=1;rounded=0;entryX=0;entryY=0.5;entryDx=0;entryDy=0;exitX=1;exitY=0.5;exitDx=0;exitDy=0;" edge="1" parent="1" source="jjBXs-sCvuQNykeA3na--32" target="jjBXs-sCvuQNykeA3na--30">
          <mxGeometry width="50" height="50" relative="1" as="geometry">
            <mxPoint x="-350" y="500" as="sourcePoint" />
            <mxPoint x="-300" y="450" as="targetPoint" />
          </mxGeometry>
        </mxCell>
        <mxCell id="jjBXs-sCvuQNykeA3na--100" style="edgeStyle=none;rounded=0;orthogonalLoop=1;jettySize=auto;html=1;exitX=0.5;exitY=1;exitDx=0;exitDy=0;entryX=0.5;entryY=0;entryDx=0;entryDy=0;fontSize=13;" edge="1" parent="1" target="jjBXs-sCvuQNykeA3na--103">
          <mxGeometry relative="1" as="geometry">
            <mxPoint x="930.5" y="-19" as="sourcePoint" />
          </mxGeometry>
        </mxCell>
        <mxCell id="jjBXs-sCvuQNykeA3na--101" style="edgeStyle=orthogonalEdgeStyle;rounded=0;orthogonalLoop=1;jettySize=auto;html=1;exitX=0;exitY=0.5;exitDx=0;exitDy=0;entryX=0.5;entryY=0;entryDx=0;entryDy=0;fontSize=13;" edge="1" parent="1" source="jjBXs-sCvuQNykeA3na--103" target="jjBXs-sCvuQNykeA3na--5">
          <mxGeometry relative="1" as="geometry">
            <mxPoint x="808" y="391" as="targetPoint" />
          </mxGeometry>
        </mxCell>
        <mxCell id="jjBXs-sCvuQNykeA3na--157" style="edgeStyle=orthogonalEdgeStyle;rounded=0;orthogonalLoop=1;jettySize=auto;html=1;exitX=1;exitY=0.5;exitDx=0;exitDy=0;entryX=0.5;entryY=0;entryDx=0;entryDy=0;" edge="1" parent="1" source="jjBXs-sCvuQNykeA3na--103" target="jjBXs-sCvuQNykeA3na--41">
          <mxGeometry relative="1" as="geometry" />
        </mxCell>
        <mxCell id="jjBXs-sCvuQNykeA3na--103" value="d" style="ellipse;whiteSpace=wrap;html=1;aspect=fixed;fontSize=13;" vertex="1" parent="1">
          <mxGeometry x="915.5" y="31" width="30" height="30" as="geometry" />
        </mxCell>
        <mxCell id="jjBXs-sCvuQNykeA3na--104" value="Internal professor" style="rounded=0;whiteSpace=wrap;html=1;fontSize=13;" vertex="1" parent="1">
          <mxGeometry x="872.49" y="569.49" width="120" height="60" as="geometry" />
        </mxCell>
        <mxCell id="jjBXs-sCvuQNykeA3na--105" value="&lt;u&gt;Name&lt;/u&gt;" style="ellipse;whiteSpace=wrap;html=1;fontSize=13;" vertex="1" parent="1">
          <mxGeometry x="180.5" y="-148" width="70" height="40" as="geometry" />
        </mxCell>
        <mxCell id="jjBXs-sCvuQNykeA3na--106" value="&lt;u&gt;Code&lt;/u&gt;" style="ellipse;whiteSpace=wrap;html=1;fontSize=13;" vertex="1" parent="1">
          <mxGeometry x="261.5" y="-148" width="70" height="40" as="geometry" />
        </mxCell>
        <mxCell id="jjBXs-sCvuQNykeA3na--107" value="Office" style="ellipse;whiteSpace=wrap;html=1;fontSize=13;" vertex="1" parent="1">
          <mxGeometry x="344.5" y="-148" width="70" height="40" as="geometry" />
        </mxCell>
        <mxCell id="jjBXs-sCvuQNykeA3na--109" value="Faculty" style="ellipse;whiteSpace=wrap;html=1;" vertex="1" parent="1">
          <mxGeometry x="427.5" y="-148" width="70" height="40" as="geometry" />
        </mxCell>
        <mxCell id="jjBXs-sCvuQNykeA3na--110" value="" style="endArrow=none;html=1;rounded=0;entryX=0.736;entryY=0.925;entryDx=0;entryDy=0;entryPerimeter=0;exitX=0;exitY=0;exitDx=0;exitDy=0;" edge="1" parent="1" source="jjBXs-sCvuQNykeA3na--1" target="jjBXs-sCvuQNykeA3na--105">
          <mxGeometry width="50" height="50" relative="1" as="geometry">
            <mxPoint x="520" y="-58" as="sourcePoint" />
            <mxPoint x="570" y="-108" as="targetPoint" />
          </mxGeometry>
        </mxCell>
        <mxCell id="jjBXs-sCvuQNykeA3na--111" value="" style="endArrow=none;html=1;rounded=0;entryX=0.607;entryY=0.975;entryDx=0;entryDy=0;entryPerimeter=0;exitX=0.25;exitY=0;exitDx=0;exitDy=0;" edge="1" parent="1" source="jjBXs-sCvuQNykeA3na--1" target="jjBXs-sCvuQNykeA3na--106">
          <mxGeometry width="50" height="50" relative="1" as="geometry">
            <mxPoint x="520" y="-58" as="sourcePoint" />
            <mxPoint x="570" y="-108" as="targetPoint" />
          </mxGeometry>
        </mxCell>
        <mxCell id="jjBXs-sCvuQNykeA3na--112" value="" style="endArrow=none;html=1;rounded=0;entryX=0.5;entryY=1;entryDx=0;entryDy=0;exitX=0.75;exitY=0;exitDx=0;exitDy=0;" edge="1" parent="1" source="jjBXs-sCvuQNykeA3na--1" target="jjBXs-sCvuQNykeA3na--107">
          <mxGeometry width="50" height="50" relative="1" as="geometry">
            <mxPoint x="520" y="-58" as="sourcePoint" />
            <mxPoint x="570" y="-108" as="targetPoint" />
          </mxGeometry>
        </mxCell>
        <mxCell id="jjBXs-sCvuQNykeA3na--113" value="" style="endArrow=none;html=1;rounded=0;entryX=0.5;entryY=1;entryDx=0;entryDy=0;exitX=1;exitY=0;exitDx=0;exitDy=0;" edge="1" parent="1" source="jjBXs-sCvuQNykeA3na--1" target="jjBXs-sCvuQNykeA3na--109">
          <mxGeometry width="50" height="50" relative="1" as="geometry">
            <mxPoint x="520" y="-58" as="sourcePoint" />
            <mxPoint x="570" y="-108" as="targetPoint" />
          </mxGeometry>
        </mxCell>
        <mxCell id="jjBXs-sCvuQNykeA3na--114" value="Semester" style="ellipse;whiteSpace=wrap;html=1;fontSize=13;" vertex="1" parent="1">
          <mxGeometry x="130" y="340.5" width="70" height="40" as="geometry" />
        </mxCell>
        <mxCell id="jjBXs-sCvuQNykeA3na--139" value="" style="edgeStyle=orthogonalEdgeStyle;shape=link;rounded=0;orthogonalLoop=1;jettySize=auto;html=1;" edge="1" parent="1" source="jjBXs-sCvuQNykeA3na--115" target="E9s0W05PRkl6Z1t8F-qR-22">
          <mxGeometry relative="1" as="geometry" />
        </mxCell>
        <mxCell id="jjBXs-sCvuQNykeA3na--115" value="belong to" style="rhombus;whiteSpace=wrap;html=1;" vertex="1" parent="1">
          <mxGeometry x="169" y="393.13" width="100" height="54.75" as="geometry" />
        </mxCell>
        <mxCell id="jjBXs-sCvuQNykeA3na--122" value="1" style="edgeStyle=orthogonalEdgeStyle;shape=link;rounded=0;orthogonalLoop=1;jettySize=auto;html=1;exitX=1;exitY=0.5;exitDx=0;exitDy=0;entryX=0;entryY=0.5;entryDx=0;entryDy=0;" edge="1" parent="1" source="jjBXs-sCvuQNykeA3na--115" target="E9s0W05PRkl6Z1t8F-qR-22">
          <mxGeometry relative="1" as="geometry">
            <mxPoint x="111" y="431" as="sourcePoint" />
            <mxPoint x="179" y="431" as="targetPoint" />
            <Array as="points">
              <mxPoint x="300" y="421" />
              <mxPoint x="300" y="421" />
            </Array>
          </mxGeometry>
        </mxCell>
        <mxCell id="jjBXs-sCvuQNykeA3na--124" value="1" style="edgeLabel;html=1;align=center;verticalAlign=middle;resizable=0;points=[];" vertex="1" connectable="0" parent="jjBXs-sCvuQNykeA3na--122">
          <mxGeometry x="-0.098" y="4" relative="1" as="geometry">
            <mxPoint as="offset" />
          </mxGeometry>
        </mxCell>
        <mxCell id="jjBXs-sCvuQNykeA3na--125" value="" style="endArrow=none;html=1;rounded=0;entryX=0;entryY=0;entryDx=0;entryDy=0;exitX=0.5;exitY=1;exitDx=0;exitDy=0;" edge="1" parent="1" source="jjBXs-sCvuQNykeA3na--114" target="jjBXs-sCvuQNykeA3na--115">
          <mxGeometry width="50" height="50" relative="1" as="geometry">
            <mxPoint x="310" y="390" as="sourcePoint" />
            <mxPoint x="360" y="340" as="targetPoint" />
          </mxGeometry>
        </mxCell>
        <mxCell id="jjBXs-sCvuQNykeA3na--126" value="External docent" style="rounded=0;whiteSpace=wrap;html=1;fontSize=13;" vertex="1" parent="1">
          <mxGeometry x="1052.49" y="569.49" width="120" height="60" as="geometry" />
        </mxCell>
        <mxCell id="jjBXs-sCvuQNykeA3na--127" style="edgeStyle=none;rounded=0;orthogonalLoop=1;jettySize=auto;html=1;exitX=0.5;exitY=1;exitDx=0;exitDy=0;entryX=0.5;entryY=0;entryDx=0;entryDy=0;fontSize=13;" edge="1" parent="1" target="jjBXs-sCvuQNykeA3na--130" source="jjBXs-sCvuQNykeA3na--41">
          <mxGeometry relative="1" as="geometry">
            <mxPoint x="1018.5" y="450.51" as="sourcePoint" />
          </mxGeometry>
        </mxCell>
        <mxCell id="jjBXs-sCvuQNykeA3na--128" style="edgeStyle=orthogonalEdgeStyle;rounded=0;orthogonalLoop=1;jettySize=auto;html=1;exitX=0;exitY=0.5;exitDx=0;exitDy=0;entryX=0.5;entryY=0;entryDx=0;entryDy=0;fontSize=13;" edge="1" parent="1" source="jjBXs-sCvuQNykeA3na--130" target="jjBXs-sCvuQNykeA3na--104">
          <mxGeometry relative="1" as="geometry">
            <mxPoint x="932.49" y="572" as="targetPoint" />
          </mxGeometry>
        </mxCell>
        <mxCell id="jjBXs-sCvuQNykeA3na--129" style="edgeStyle=orthogonalEdgeStyle;rounded=0;orthogonalLoop=1;jettySize=auto;html=1;exitX=1;exitY=0.5;exitDx=0;exitDy=0;fontSize=13;entryX=0.5;entryY=0;entryDx=0;entryDy=0;" edge="1" parent="1" source="jjBXs-sCvuQNykeA3na--130" target="jjBXs-sCvuQNykeA3na--126">
          <mxGeometry relative="1" as="geometry">
            <mxPoint x="1113.49" y="572.49" as="targetPoint" />
            <Array as="points">
              <mxPoint x="1112.49" y="505.49" />
            </Array>
          </mxGeometry>
        </mxCell>
        <mxCell id="jjBXs-sCvuQNykeA3na--130" value="d" style="ellipse;whiteSpace=wrap;html=1;aspect=fixed;fontSize=13;" vertex="1" parent="1">
          <mxGeometry x="1007.99" y="490" width="30" height="30" as="geometry" />
        </mxCell>
        <mxCell id="jjBXs-sCvuQNykeA3na--132" value="n" style="edgeStyle=orthogonalEdgeStyle;shape=link;rounded=0;orthogonalLoop=1;jettySize=auto;html=1;exitX=1;exitY=0.5;exitDx=0;exitDy=0;entryX=0;entryY=0.5;entryDx=0;entryDy=0;" edge="1" parent="1" target="jjBXs-sCvuQNykeA3na--135">
          <mxGeometry x="0.1471" relative="1" as="geometry">
            <mxPoint x="440" y="419.5" as="sourcePoint" />
            <Array as="points">
              <mxPoint x="490" y="419" />
              <mxPoint x="490" y="419" />
            </Array>
            <mxPoint as="offset" />
          </mxGeometry>
        </mxCell>
        <mxCell id="jjBXs-sCvuQNykeA3na--134" value="Semester" style="ellipse;whiteSpace=wrap;html=1;fontSize=13;" vertex="1" parent="1">
          <mxGeometry x="487" y="339" width="70" height="40" as="geometry" />
        </mxCell>
        <mxCell id="jjBXs-sCvuQNykeA3na--142" style="edgeStyle=orthogonalEdgeStyle;shape=link;rounded=0;orthogonalLoop=1;jettySize=auto;html=1;exitX=1;exitY=0.5;exitDx=0;exitDy=0;entryX=0;entryY=0.5;entryDx=0;entryDy=0;" edge="1" parent="1" source="jjBXs-sCvuQNykeA3na--135" target="jjBXs-sCvuQNykeA3na--5">
          <mxGeometry relative="1" as="geometry" />
        </mxCell>
        <mxCell id="jjBXs-sCvuQNykeA3na--143" value="1" style="edgeLabel;html=1;align=center;verticalAlign=middle;resizable=0;points=[];" vertex="1" connectable="0" parent="jjBXs-sCvuQNykeA3na--142">
          <mxGeometry x="-0.0103" relative="1" as="geometry">
            <mxPoint as="offset" />
          </mxGeometry>
        </mxCell>
        <mxCell id="jjBXs-sCvuQNykeA3na--135" value="manages" style="rhombus;whiteSpace=wrap;html=1;" vertex="1" parent="1">
          <mxGeometry x="526" y="391.63" width="100" height="54.75" as="geometry" />
        </mxCell>
        <mxCell id="jjBXs-sCvuQNykeA3na--138" value="" style="endArrow=none;html=1;rounded=0;entryX=0;entryY=0;entryDx=0;entryDy=0;exitX=0.5;exitY=1;exitDx=0;exitDy=0;" edge="1" parent="1" source="jjBXs-sCvuQNykeA3na--134" target="jjBXs-sCvuQNykeA3na--135">
          <mxGeometry width="50" height="50" relative="1" as="geometry">
            <mxPoint x="667" y="388.5" as="sourcePoint" />
            <mxPoint x="717" y="338.5" as="targetPoint" />
          </mxGeometry>
        </mxCell>
        <mxCell id="jjBXs-sCvuQNykeA3na--144" value="SGL" style="rhombus;whiteSpace=wrap;html=1;" vertex="1" parent="1">
          <mxGeometry x="530.49" y="572.11" width="100" height="54.75" as="geometry" />
        </mxCell>
        <mxCell id="jjBXs-sCvuQNykeA3na--146" value="1" style="endArrow=none;html=1;rounded=0;entryX=0;entryY=0.5;entryDx=0;entryDy=0;exitX=1;exitY=0.5;exitDx=0;exitDy=0;" edge="1" parent="1" source="jjBXs-sCvuQNykeA3na--144" target="jjBXs-sCvuQNykeA3na--104">
          <mxGeometry width="50" height="50" relative="1" as="geometry">
            <mxPoint x="574.49" y="429.49" as="sourcePoint" />
            <mxPoint x="624.49" y="379.49" as="targetPoint" />
            <Array as="points" />
          </mxGeometry>
        </mxCell>
        <mxCell id="jjBXs-sCvuQNykeA3na--147" value="Start" style="ellipse;whiteSpace=wrap;html=1;fontSize=13;" vertex="1" parent="1">
          <mxGeometry x="491.99" y="520" width="70" height="40" as="geometry" />
        </mxCell>
        <mxCell id="jjBXs-sCvuQNykeA3na--148" value="" style="endArrow=none;html=1;rounded=0;entryX=0;entryY=0;entryDx=0;entryDy=0;exitX=0.5;exitY=1;exitDx=0;exitDy=0;" edge="1" parent="1" source="jjBXs-sCvuQNykeA3na--147">
          <mxGeometry width="50" height="50" relative="1" as="geometry">
            <mxPoint x="671.99" y="569.5" as="sourcePoint" />
            <mxPoint x="555.99" y="586" as="targetPoint" />
          </mxGeometry>
        </mxCell>
        <mxCell id="jjBXs-sCvuQNykeA3na--150" value="End" style="ellipse;whiteSpace=wrap;html=1;fontSize=13;" vertex="1" parent="1">
          <mxGeometry x="584.49" y="520" width="70" height="40" as="geometry" />
        </mxCell>
        <mxCell id="jjBXs-sCvuQNykeA3na--151" value="" style="endArrow=none;html=1;rounded=0;entryX=1;entryY=0;entryDx=0;entryDy=0;exitX=0.5;exitY=1;exitDx=0;exitDy=0;" edge="1" parent="1" source="jjBXs-sCvuQNykeA3na--150" target="jjBXs-sCvuQNykeA3na--144">
          <mxGeometry width="50" height="50" relative="1" as="geometry">
            <mxPoint x="537.49" y="570.49" as="sourcePoint" />
            <mxPoint x="565.99" y="596" as="targetPoint" />
          </mxGeometry>
        </mxCell>
        <mxCell id="jjBXs-sCvuQNykeA3na--154" value="" style="group" vertex="1" connectable="0" parent="1">
          <mxGeometry x="1228.49" y="569.49" width="106" height="57.370000000000005" as="geometry" />
        </mxCell>
        <mxCell id="jjBXs-sCvuQNykeA3na--152" value="" style="ellipse;whiteSpace=wrap;html=1;" vertex="1" parent="jjBXs-sCvuQNykeA3na--154">
          <mxGeometry width="106" height="57.37" as="geometry" />
        </mxCell>
        <mxCell id="jjBXs-sCvuQNykeA3na--153" value="Organization" style="ellipse;whiteSpace=wrap;html=1;" vertex="1" parent="jjBXs-sCvuQNykeA3na--154">
          <mxGeometry x="6.5" y="6.969999999999914" width="93" height="43.44" as="geometry" />
        </mxCell>
        <mxCell id="jjBXs-sCvuQNykeA3na--155" value="" style="endArrow=none;html=1;rounded=0;entryX=0;entryY=0.5;entryDx=0;entryDy=0;exitX=1;exitY=0.5;exitDx=0;exitDy=0;" edge="1" parent="1" source="jjBXs-sCvuQNykeA3na--126" target="jjBXs-sCvuQNykeA3na--152">
          <mxGeometry width="50" height="50" relative="1" as="geometry">
            <mxPoint x="814.49" y="439.49" as="sourcePoint" />
            <mxPoint x="864.49" y="389.49" as="targetPoint" />
          </mxGeometry>
        </mxCell>
        <mxCell id="jjBXs-sCvuQNykeA3na--163" style="edgeStyle=orthogonalEdgeStyle;shape=link;rounded=0;orthogonalLoop=1;jettySize=auto;html=1;exitX=1;exitY=0.5;exitDx=0;exitDy=0;entryX=0;entryY=0.5;entryDx=0;entryDy=0;" edge="1" parent="1" source="jjBXs-sCvuQNykeA3na--156" target="jjBXs-sCvuQNykeA3na--158">
          <mxGeometry relative="1" as="geometry" />
        </mxCell>
        <mxCell id="jjBXs-sCvuQNykeA3na--164" value="n" style="edgeLabel;html=1;align=center;verticalAlign=middle;resizable=0;points=[];" vertex="1" connectable="0" parent="jjBXs-sCvuQNykeA3na--163">
          <mxGeometry x="0.133" y="-1" relative="1" as="geometry">
            <mxPoint as="offset" />
          </mxGeometry>
        </mxCell>
        <mxCell id="jjBXs-sCvuQNykeA3na--156" value="Course" style="rounded=0;whiteSpace=wrap;html=1;" vertex="1" parent="1">
          <mxGeometry x="530.49" y="120" width="120" height="60" as="geometry" />
        </mxCell>
        <mxCell id="jjBXs-sCvuQNykeA3na--175" style="edgeStyle=orthogonalEdgeStyle;rounded=0;orthogonalLoop=1;jettySize=auto;html=1;exitX=1;exitY=0.5;exitDx=0;exitDy=0;entryX=0.25;entryY=0;entryDx=0;entryDy=0;endArrow=none;endFill=0;" edge="1" parent="1" source="jjBXs-sCvuQNykeA3na--158" target="jjBXs-sCvuQNykeA3na--41">
          <mxGeometry relative="1" as="geometry" />
        </mxCell>
        <mxCell id="jjBXs-sCvuQNykeA3na--176" value="m" style="edgeLabel;html=1;align=center;verticalAlign=middle;resizable=0;points=[];" vertex="1" connectable="0" parent="jjBXs-sCvuQNykeA3na--175">
          <mxGeometry x="0.0143" y="-1" relative="1" as="geometry">
            <mxPoint x="-1" as="offset" />
          </mxGeometry>
        </mxCell>
        <mxCell id="jjBXs-sCvuQNykeA3na--158" value="teach" style="rhombus;whiteSpace=wrap;html=1;" vertex="1" parent="1">
          <mxGeometry x="720" y="125" width="80" height="50" as="geometry" />
        </mxCell>
        <mxCell id="jjBXs-sCvuQNykeA3na--165" value="Module" style="rounded=0;whiteSpace=wrap;html=1;" vertex="1" parent="1">
          <mxGeometry x="279" y="120" width="120" height="60" as="geometry" />
        </mxCell>
        <mxCell id="jjBXs-sCvuQNykeA3na--166" value="Name" style="ellipse;whiteSpace=wrap;html=1;flipH=1;" vertex="1" parent="1">
          <mxGeometry x="163" width="94" height="40" as="geometry" />
        </mxCell>
        <mxCell id="jjBXs-sCvuQNykeA3na--167" value="Description" style="ellipse;whiteSpace=wrap;html=1;flipH=1;" vertex="1" parent="1">
          <mxGeometry x="163" y="50" width="94" height="40" as="geometry" />
        </mxCell>
        <mxCell id="jjBXs-sCvuQNykeA3na--168" value="&lt;u&gt;Code&lt;/u&gt;" style="ellipse;whiteSpace=wrap;html=1;flipH=1;" vertex="1" parent="1">
          <mxGeometry x="163" y="100" width="94" height="40" as="geometry" />
        </mxCell>
        <mxCell id="jjBXs-sCvuQNykeA3na--169" value="Hours" style="ellipse;whiteSpace=wrap;html=1;flipH=1;" vertex="1" parent="1">
          <mxGeometry x="163" y="150" width="94" height="40" as="geometry" />
        </mxCell>
        <mxCell id="jjBXs-sCvuQNykeA3na--170" value="ECTS" style="ellipse;whiteSpace=wrap;html=1;flipH=1;" vertex="1" parent="1">
          <mxGeometry x="163" y="200" width="94" height="40" as="geometry" />
        </mxCell>
        <mxCell id="jjBXs-sCvuQNykeA3na--171" value="offer" style="rhombus;whiteSpace=wrap;html=1;" vertex="1" parent="1">
          <mxGeometry x="299" y="12.5" width="80" height="50" as="geometry" />
        </mxCell>
        <mxCell id="jjBXs-sCvuQNykeA3na--172" value="" style="endArrow=none;html=1;rounded=0;entryX=0.5;entryY=1;entryDx=0;entryDy=0;exitX=0.5;exitY=0;exitDx=0;exitDy=0;" edge="1" parent="1" source="jjBXs-sCvuQNykeA3na--171" target="jjBXs-sCvuQNykeA3na--1">
          <mxGeometry width="50" height="50" relative="1" as="geometry">
            <mxPoint x="120" y="192" as="sourcePoint" />
            <mxPoint x="170" y="142" as="targetPoint" />
          </mxGeometry>
        </mxCell>
        <mxCell id="jjBXs-sCvuQNykeA3na--178" value="m" style="edgeLabel;html=1;align=center;verticalAlign=middle;resizable=0;points=[];" vertex="1" connectable="0" parent="jjBXs-sCvuQNykeA3na--172">
          <mxGeometry x="0.1078" y="-1" relative="1" as="geometry">
            <mxPoint x="8" as="offset" />
          </mxGeometry>
        </mxCell>
        <mxCell id="jjBXs-sCvuQNykeA3na--179" value="Elective" style="ellipse;whiteSpace=wrap;html=1;flipH=1;" vertex="1" parent="1">
          <mxGeometry x="163" y="250" width="94" height="40" as="geometry" />
        </mxCell>
        <mxCell id="jjBXs-sCvuQNykeA3na--180" value="" style="endArrow=none;html=1;rounded=0;entryX=0.5;entryY=1;entryDx=0;entryDy=0;" edge="1" parent="1" source="jjBXs-sCvuQNykeA3na--165" target="jjBXs-sCvuQNykeA3na--171">
          <mxGeometry width="50" height="50" relative="1" as="geometry">
            <mxPoint x="460" y="170" as="sourcePoint" />
            <mxPoint x="510" y="120" as="targetPoint" />
          </mxGeometry>
        </mxCell>
        <mxCell id="jjBXs-sCvuQNykeA3na--181" value="consist" style="rhombus;whiteSpace=wrap;html=1;" vertex="1" parent="1">
          <mxGeometry x="422.5" y="125" width="80" height="50" as="geometry" />
        </mxCell>
        <mxCell id="jjBXs-sCvuQNykeA3na--182" value="1" style="endArrow=none;html=1;rounded=0;exitX=1;exitY=0.5;exitDx=0;exitDy=0;entryX=0;entryY=0.5;entryDx=0;entryDy=0;" edge="1" parent="1" source="jjBXs-sCvuQNykeA3na--165" target="jjBXs-sCvuQNykeA3na--181">
          <mxGeometry width="50" height="50" relative="1" as="geometry">
            <mxPoint x="460" y="170" as="sourcePoint" />
            <mxPoint x="510" y="120" as="targetPoint" />
            <Array as="points">
              <mxPoint x="410" y="150" />
            </Array>
          </mxGeometry>
        </mxCell>
        <mxCell id="jjBXs-sCvuQNykeA3na--183" value="m" style="endArrow=none;html=1;rounded=0;entryX=0;entryY=0.5;entryDx=0;entryDy=0;exitX=1;exitY=0.5;exitDx=0;exitDy=0;" edge="1" parent="1" source="jjBXs-sCvuQNykeA3na--181" target="jjBXs-sCvuQNykeA3na--156">
          <mxGeometry width="50" height="50" relative="1" as="geometry">
            <mxPoint x="460" y="170" as="sourcePoint" />
            <mxPoint x="510" y="120" as="targetPoint" />
          </mxGeometry>
        </mxCell>
      </root>
    </mxGraphModel>
  </diagram>
</mxfile>
